HIERARCHY
ROOT Pelvis
{
	OFFSET 0.000000 0.000000 0.000000
	CHANNELS 6 Xposition Yposition Zposition Xrotation Yrotation Zrotation
	JOINT LeftUpLeg_virtual
	{
		OFFSET 0.000000 0.000000 0.000000
		CHANNELS 3 Xrotation Yrotation Zrotation
		JOINT LeftUpLeg
		{
			OFFSET 18.735201 -5.666702 -4.541200
			CHANNELS 3 Xrotation Yrotation Zrotation
			JOINT LeftLeg
			{
				OFFSET -0.021200 -31.938179 0.493100
				CHANNELS 3 Xrotation Yrotation Zrotation
				JOINT LeftFoot
				{
					OFFSET 0.021200 -31.938179 -4.336299
					CHANNELS 3 Xrotation Yrotation Zrotation
					JOINT LeftToeBase
					{
						OFFSET 0.943001 -26.722000 15.023500
						CHANNELS 3 Xrotation Yrotation Zrotation
						End Site
						{
							OFFSET 0 0 0
						}
					}
				}
			}
		}
	}
	JOINT RightUpLeg_virtual
	{
		OFFSET 0.000000 0.000000 0.000000
		CHANNELS 3 Xrotation Yrotation Zrotation
		JOINT RightUpLeg
		{
			OFFSET -18.735201 -5.666702 -4.541200
			CHANNELS 3 Xrotation Yrotation Zrotation
			JOINT RightLeg
			{
				OFFSET 0.018946 -31.938133 0.493100
				CHANNELS 3 Xrotation Yrotation Zrotation
				JOINT RightFoot
				{
					OFFSET -0.018946 -31.938126 -4.336299
					CHANNELS 3 Xrotation Yrotation Zrotation
					JOINT RightToeBase
					{
						OFFSET -0.943001 -26.722004 15.023500
						CHANNELS 3 Xrotation Yrotation Zrotation
						End Site
						{
							OFFSET 0 0 0
						}
					}
				}
			}
		}
	}
	JOINT Hips_virtual
	{
		OFFSET 0.000000 0.000000 0.000000
		CHANNELS 3 Xrotation Yrotation Zrotation
		JOINT Hips
		{
			OFFSET -0.000000 -0.000000 -0.000000
			CHANNELS 3 Xrotation Yrotation Zrotation
			JOINT Spine
			{
				OFFSET 0.000000 10.199997 -0.299500
				CHANNELS 3 Xrotation Yrotation Zrotation
				JOINT Spine1
				{
					OFFSET 0.000000 11.900002 -1.516600
					CHANNELS 3 Xrotation Yrotation Zrotation
					JOINT Spine2
					{
						OFFSET 0.000000 13.600006 -2.842500
						CHANNELS 3 Xrotation Yrotation Zrotation
						JOINT Neck_virtual
						{
							OFFSET 0.000000 0.000000 0.000000
							CHANNELS 3 Xrotation Yrotation Zrotation
							JOINT Neck
							{
								OFFSET 0.000000 9.624100 -2.890100
								CHANNELS 3 Xrotation Yrotation Zrotation
								JOINT Head
								{
									OFFSET 0.000000 14.068802 -1.351900
									CHANNELS 3 Xrotation Yrotation Zrotation
									End Site
									{
										OFFSET 0 0 0
									}
								}
							}
						}
						JOINT LeftShoulder_virtual
						{
							OFFSET 0.000000 0.000000 0.000000
							CHANNELS 3 Xrotation Yrotation Zrotation
							JOINT LeftShoulder
							{
								OFFSET 15.263000 10.923401 -0.547700
								CHANNELS 3 Xrotation Yrotation Zrotation
								JOINT LeftArm
								{
									OFFSET 25.438599 -2.830597 -13.032500
									CHANNELS 3 Xrotation Yrotation Zrotation
									JOINT LeftForeArm
									{
										OFFSET 29.960503 0.000000 0.000000
										CHANNELS 3 Xrotation Yrotation Zrotation
										JOINT LeftHand
										{
											OFFSET 27.849251 0.000000 0.000000
											CHANNELS 3 Xrotation Yrotation Zrotation
											End Site
											{
												OFFSET 0 0 0
											}
										}
									}
								}
							}
						}
						JOINT RightShoulder_virtual
						{
							OFFSET 0.000000 0.000000 0.000000
							CHANNELS 3 Xrotation Yrotation Zrotation
							JOINT RightShoulder
							{
								OFFSET -15.263000 10.923401 -0.547700
								CHANNELS 3 Xrotation Yrotation Zrotation
								JOINT RightArm
								{
									OFFSET -25.438599 -2.830597 -13.032500
									CHANNELS 3 Xrotation Yrotation Zrotation
									JOINT RightForeArm
									{
										OFFSET -29.960503 0.000000 0.000000
										CHANNELS 3 Xrotation Yrotation Zrotation
										JOINT RightHand
										{
											OFFSET -27.849251 0.000000 0.000000
											CHANNELS 3 Xrotation Yrotation Zrotation
											End Site
											{
												OFFSET 0 0 0
											}
										}
									}
								}
							}
						}
					}
				}
			}
		}
	}
}
MOTION
Frames: 9
Frame Time: 0.03333333
8.540381 88.640144 1.967143 0.000000 0.000000 0.000000 8.873750 -21.425327 0.442364 -30.751530 6.190444 14.979032 40.312463 5.684892 -2.322798 -11.194957 6.489662 -5.082640 0.000000 0.000000 0.000000 6.271913 -4.586256 0.199602 -22.329729 -6.256645 -15.151064 43.297495 -4.321013 -3.651760 -9.171267 -5.572804 2.324014 0.000000 0.000000 0.000000 11.297548 8.630217 0.028735 -1.144784 -22.486636 2.127170 17.900719 5.944861 -2.486608 9.295728 3.725538 -1.898488 0.000000 0.000000 0.000000 3.614674 4.801266 -1.593178 -1.573686 -0.177688 0.827195 0.000000 0.000000 0.000000 -0.894070 6.653320 -1.853400 -1.538604 -4.792059 0.393830 -16.823222 10.041945 -57.024665 -8.982646 -37.969336 -8.678992 0.000000 0.000000 0.000000 3.532878 1.750074 -2.805980 0.858160 -5.078039 3.995571 43.818799 41.836186 20.898876 28.638382 53.829097 -8.190329 0.000000 0.000000 0.000000 
8.494294 88.955620 1.947504 0.000000 0.000000 0.000000 8.964704 -21.327696 0.354850 -30.635652 6.271290 14.887903 40.111963 5.682520 -2.208409 -11.262348 6.446545 -4.925742 0.000000 0.000000 0.000000 6.235497 -4.523792 0.192939 -22.371685 -6.231498 -15.147367 42.568392 -3.224067 -3.217737 -9.706965 -4.785124 3.835130 0.000000 0.000000 0.000000 11.345473 8.688512 0.008171 -1.258891 -22.101133 1.751781 17.776670 5.944117 -2.385411 9.184397 3.718611 -1.814605 0.000000 0.000000 0.000000 3.431171 4.809978 -1.558279 -1.635083 -0.150194 0.799675 0.000000 0.000000 0.000000 -0.981858 6.617758 -1.771681 -1.596339 -4.822241 0.539059 -16.687940 9.992077 -56.588278 -8.710871 -37.609699 -8.490568 0.000000 0.000000 0.000000 3.386217 1.794718 -2.747403 0.767406 -4.708727 4.017749 41.169819 40.779057 23.409913 26.308162 51.908536 -6.069069 0.000000 0.000000 0.000000 
8.437513 89.258133 1.913715 0.000000 0.000000 0.000000 9.053867 -21.191079 0.284979 -30.528804 6.354413 14.822887 39.924556 5.686282 -2.110242 -11.316990 6.417363 -4.787312 0.000000 0.000000 0.000000 6.254298 -4.540294 0.178509 -22.347042 -6.236025 -15.165132 41.685365 -2.311528 -2.815692 -10.380560 -4.172537 5.143459 0.000000 0.000000 0.000000 11.364584 8.683319 0.000411 -1.364824 -21.704027 1.388771 17.658361 5.944622 -2.279848 9.073431 3.712902 -1.726532 0.000000 0.000000 0.000000 3.254666 4.819472 -1.535206 -1.691048 -0.115654 0.760042 0.000000 0.000000 0.000000 -1.067773 6.579025 -1.685334 -1.653909 -4.829612 0.658761 -16.544760 9.930649 -56.175007 -8.439244 -37.256606 -8.317150 0.000000 0.000000 0.000000 3.261103 1.846681 -2.697107 0.699929 -4.288946 3.998250 39.050582 39.647974 25.442262 24.488863 50.056909 -4.467464 0.000000 0.000000 0.000000 
8.375216 89.540855 1.876385 0.000000 0.000000 0.000000 9.138038 -21.016661 0.226122 -30.429671 6.440637 14.775806 39.746264 5.690996 -2.028729 -11.362679 6.397460 -4.671488 0.000000 0.000000 0.000000 6.324324 -4.573530 0.168899 -22.256188 -6.255971 -15.182319 40.695462 -1.582231 -2.457455 -11.138879 -3.724167 6.230657 0.000000 0.000000 0.000000 11.353666 8.616058 0.004779 -1.465691 -21.289056 1.035182 17.542561 5.946888 -2.170800 8.961032 3.708399 -1.634949 0.000000 0.000000 0.000000 3.083154 4.828537 -1.521530 -1.743138 -0.075321 0.710178 0.000000 0.000000 0.000000 -1.150892 6.537291 -1.595484 -1.711631 -4.812095 0.747803 -16.387096 9.852641 -55.791130 -8.167670 -36.920697 -8.158171 0.000000 0.000000 0.000000 3.152168 1.906006 -2.651312 0.649068 -3.824044 3.956811 37.401156 38.487850 27.061701 23.084935 48.308343 -3.286598 0.000000 0.000000 0.000000 
8.310623 89.798073 1.843664 0.000000 0.000000 0.000000 9.211462 -20.804756 0.172134 -30.340609 6.530203 14.739758 39.572572 5.690295 -1.963219 -11.404038 6.380466 -4.581697 0.000000 0.000000 0.000000 6.437498 -4.569459 0.171583 -22.104608 -6.277237 -15.182892 39.649245 -1.020807 -2.148354 -11.931947 -3.417260 7.102711 0.000000 0.000000 0.000000 11.312302 8.491309 0.019789 -1.564820 -20.846108 0.687001 17.425013 5.950514 -2.059126 8.844822 3.704548 -1.540579 0.000000 0.000000 0.000000 2.914292 4.835268 -1.513528 -1.793039 -0.030984 0.652729 0.000000 0.000000 0.000000 -1.231432 6.492080 -1.502931 -1.770370 -4.770599 0.803166 -16.213974 9.755842 -55.439891 -7.898391 -36.612143 -8.012885 0.000000 0.000000 0.000000 3.051978 1.972269 -2.605946 0.606071 -3.321550 3.914159 36.126646 37.328995 28.362338 22.003287 46.687355 -2.431947 0.000000 0.000000 0.000000 
8.244505 90.025986 1.820907 0.000000 0.000000 0.000000 9.267018 -20.554484 0.118052 -30.266542 6.622884 14.709693 39.399731 5.677584 -1.912189 -11.445303 6.359276 -4.520240 0.000000 0.000000 0.000000 6.582661 -4.489840 0.187606 -21.902841 -6.287792 -15.159492 38.596716 -0.606416 -1.889082 -12.716602 -3.226208 7.778850 0.000000 0.000000 0.000000 11.240614 8.316377 0.043444 -1.665658 -20.363488 0.341146 17.300936 5.954296 -1.945722 8.722167 3.700400 -1.444206 0.000000 0.000000 0.000000 2.745803 4.837321 -1.507341 -1.842364 0.015269 0.590457 0.000000 0.000000 0.000000 -1.310473 6.442597 -1.408138 -1.831236 -4.707793 0.824068 -16.028895 9.642389 -55.122523 -7.635649 -36.338147 -7.880651 0.000000 0.000000 0.000000 2.952215 2.044545 -2.557547 0.561234 -2.790973 3.888217 35.114030 36.187555 29.447961 21.157788 45.210555 -1.819032 0.000000 0.000000 0.000000 
8.175364 90.222977 1.810809 0.000000 0.000000 0.000000 9.298243 -20.265012 0.060638 -30.212717 6.718113 14.682508 39.225674 5.647039 -1.873565 -11.489341 6.327159 -4.488040 0.000000 0.000000 0.000000 6.747018 -4.314960 0.212925 -21.665575 -6.278995 -15.112748 37.583164 -0.318472 -1.677217 -13.458526 -3.128255 8.283549 0.000000 0.000000 0.000000 11.139026 8.100190 0.073635 -1.771477 -19.830939 -0.002907 17.165717 5.956511 -1.831517 8.590582 3.694808 -1.346649 0.000000 0.000000 0.000000 2.575802 4.832233 -1.499935 -1.892504 0.061317 0.525695 0.000000 0.000000 0.000000 -1.389538 6.388072 -1.311327 -1.895269 -4.626829 0.811613 -15.837698 9.518720 -54.839558 -7.384861 -36.101528 -7.761242 0.000000 0.000000 0.000000 2.844952 2.121472 -2.503883 0.505198 -2.243263 3.891511 34.248068 35.067004 30.417353 20.472314 43.886759 -1.376352 0.000000 0.000000 0.000000 
8.100171 90.389427 1.814037 0.000000 0.000000 0.000000 9.301438 -19.937370 -0.001366 -30.182377 6.815018 14.656732 39.050336 5.594596 -1.845068 -11.537229 6.278878 -4.484468 0.000000 0.000000 0.000000 6.917952 -4.042630 0.241267 -21.409744 -6.246349 -15.048514 36.645614 -0.139112 -1.508331 -14.133124 -3.105706 8.642026 0.000000 0.000000 0.000000 11.008120 7.851884 0.108479 -1.885002 -19.242555 -0.342436 17.015613 5.955261 -1.717467 8.448134 3.686660 -1.248734 0.000000 0.000000 0.000000 2.403070 4.817793 -1.489630 -1.944513 0.105274 0.460049 0.000000 0.000000 0.000000 -1.470163 6.328022 -1.212663 -1.963177 -4.530334 0.768079 -15.646176 9.394176 -54.592193 -7.151522 -35.900963 -7.654992 0.000000 0.000000 0.000000 2.723606 2.201409 -2.444153 0.430021 -1.689923 3.930319 33.424303 33.959837 31.354707 19.882459 42.716058 -1.045984 0.000000 0.000000 0.000000 
8.015340 90.527267 1.830233 0.000000 0.000000 0.000000 9.277115 -19.576173 -0.067310 -30.175123 6.912485 14.632050 38.875347 5.518785 -1.824482 -11.588438 6.211677 -4.507204 0.000000 0.000000 0.000000 7.084904 -3.684638 0.267080 -21.151921 -6.189622 -14.974445 35.810316 -0.053071 -1.376763 -14.725488 -3.145377 8.878479 0.000000 0.000000 0.000000 10.848655 7.579474 0.146500 -2.008047 -18.598931 -0.671825 16.848354 5.948867 -1.604577 8.293795 3.675088 -1.151274 0.000000 0.000000 0.000000 2.227208 4.792392 -1.476162 -1.999040 0.145725 0.394360 0.000000 0.000000 0.000000 -1.553564 6.262399 -1.112445 -2.035218 -4.419759 0.696166 -15.458313 9.279031 -54.382991 -6.940253 -35.732042 -7.562835 0.000000 0.000000 0.000000 2.583435 2.282678 -2.378829 0.329822 -1.141880 4.005278 32.558156 32.849412 32.324587 19.336151 41.689610 -0.782660 0.000000 0.000000 0.000000 
